<svg width="73" height="72" viewBox="0 0 73 72" fill="none" xmlns="http://www.w3.org/2000/svg">
<path d="M28.0362 54.0594H44.9602H28.0362ZM36.5 3.4931V7.10498V3.4931ZM59.5481 13.014L56.9876 15.5676L59.5481 13.014ZM69.0948 36H65.4731H69.0948ZM7.52688 36H3.90524H7.52688ZM16.0124 15.5676L13.4519 13.014L16.0124 15.5676ZM23.6939 48.7716C21.1619 46.2458 19.4377 43.0279 18.7394 39.5248C18.0411 36.0218 18.4 32.3909 19.7707 29.0912C21.1414 25.7916 23.4623 22.9714 26.4401 20.9872C29.4179 19.003 32.9187 17.944 36.5 17.944C40.0813 17.944 43.5821 19.003 46.5599 20.9872C49.5377 22.9714 51.8586 25.7916 53.2293 29.0912C54.6 32.3909 54.9589 36.0218 54.2606 39.5248C53.5623 43.0279 51.8381 46.2458 49.3061 48.7716L47.3215 50.7473C46.1868 51.8791 45.2868 53.2227 44.6729 54.7013C44.059 56.18 43.7431 57.7648 43.7433 59.3652V61.2831C43.7433 63.199 42.9801 65.0364 41.6218 66.3911C40.2634 67.7458 38.421 68.5069 36.5 68.5069C34.579 68.5069 32.7366 67.7458 31.3782 66.3911C30.0199 65.0364 29.2567 63.199 29.2567 61.2831V59.3652C29.2567 56.1326 27.9674 53.03 25.6785 50.7473L23.6939 48.7716Z" stroke="#EC7979" stroke-width="6.83333" stroke-linecap="round" stroke-linejoin="round"/>
</svg>
