<svg width="87" height="31" viewBox="0 0 87 31" fill="none" xmlns="http://www.w3.org/2000/svg">
<path d="M10.3163 0H15.8289L26.1059 31H20.5146L17.9158 23.2718H8.1507L5.5913 31H0L10.3163 0ZM16.9314 19.0366L13.0726 6.24366L9.05633 19.0366H16.9314Z" fill="white"/>
<path d="M32.086 0L39.016 11.4394L45.9067 0H51.813L42.1267 15.7183L51.498 31H45.5917L39.016 19.9972L32.401 31H26.4553L35.8266 15.7183L26.1403 0H32.086Z" fill="white"/>
<path d="M54.6277 31V0H60.0615V31H54.6277Z" fill="#EC7979"/>
<path d="M86.8026 5.2831H77.8644V31H72.47V5.2831H63.5318V0H86.8026V5.2831Z" fill="#EC7979"/>
</svg>
