<svg width="66" height="46" viewBox="0 0 66 46" fill="none" xmlns="http://www.w3.org/2000/svg">
<path d="M58.5731 0C60.5429 0 62.4319 0.778611 63.8247 2.16455C65.2175 3.55048 66 5.43021 66 7.39022V38.6098C66 40.5698 65.2175 42.4495 63.8247 43.8355C62.4319 45.2214 60.5429 46 58.5731 46H7.42686C6.45155 46 5.48579 45.8088 4.58472 45.4375C3.68365 45.0661 2.86492 44.5217 2.17528 43.8355C1.48563 43.1492 0.93857 42.3345 0.565336 41.4379C0.192101 40.5413 0 39.5803 0 38.6098V7.39022C0 5.43021 0.78247 3.55048 2.17528 2.16455C3.56808 0.778611 5.45713 0 7.42686 0H58.5731ZM58.5731 4.92681H7.42686C6.77028 4.92681 6.1406 5.18635 5.67633 5.64833C5.21206 6.1103 4.95124 6.73688 4.95124 7.39022V38.6098C4.95124 39.9696 6.06032 41.0732 7.42686 41.0732H58.5731C59.2297 41.0732 59.8594 40.8137 60.3237 40.3517C60.7879 39.8897 61.0488 39.2631 61.0488 38.6098V7.39022C61.0488 6.73688 60.7879 6.1103 60.3237 5.64833C59.8594 5.18635 59.2297 4.92681 58.5731 4.92681ZM15.6789 31.2031H50.3376C50.9648 31.2033 51.5686 31.4404 52.0269 31.8665C52.4852 32.2926 52.7639 32.876 52.8067 33.4986C52.8494 34.1213 52.6531 34.737 52.2572 35.2211C51.8614 35.7053 51.2956 36.0219 50.6743 36.107L50.3376 36.13H15.6789C15.0517 36.1298 14.4479 35.8927 13.9896 35.4666C13.5313 35.0405 13.2526 34.4571 13.2098 33.8345C13.1671 33.2118 13.3634 32.5961 13.7593 32.112C14.1551 31.6278 14.7209 31.3112 15.3422 31.2261L15.6789 31.2031H50.3376H15.6789ZM47.862 19.7072C48.7374 19.7072 49.577 20.0533 50.196 20.6693C50.815 21.2852 51.1628 22.1207 51.1628 22.9918C51.1628 23.8629 50.815 24.6983 50.196 25.3143C49.577 25.9303 48.7374 26.2763 47.862 26.2763C46.9865 26.2763 46.147 25.9303 45.5279 25.3143C44.9089 24.6983 44.5611 23.8629 44.5611 22.9918C44.5611 22.1207 44.9089 21.2852 45.5279 20.6693C46.147 20.0533 46.9865 19.7072 47.862 19.7072ZM28.0735 19.7072C28.949 19.7072 29.7885 20.0533 30.4076 20.6693C31.0266 21.2852 31.3743 22.1207 31.3743 22.9918C31.3743 23.8629 31.0266 24.6983 30.4076 25.3143C29.7885 25.9303 28.949 26.2763 28.0735 26.2763C27.1981 26.2763 26.3585 25.9303 25.7395 25.3143C25.1205 24.6983 24.7727 23.8629 24.7727 22.9918C24.7727 22.1207 25.1205 21.2852 25.7395 20.6693C26.3585 20.0533 27.1981 19.7072 28.0735 19.7072ZM18.171 19.7072C19.0465 19.7072 19.8861 20.0533 20.5051 20.6693C21.1241 21.2852 21.4719 22.1207 21.4719 22.9918C21.4719 23.8629 21.1241 24.6983 20.5051 25.3143C19.8861 25.9303 19.0465 26.2763 18.171 26.2763C17.2956 26.2763 16.456 25.9303 15.837 25.3143C15.218 24.6983 14.8702 23.8629 14.8702 22.9918C14.8702 22.1207 15.218 21.2852 15.837 20.6693C16.456 20.0533 17.2956 19.7072 18.171 19.7072ZM37.976 19.7072C38.8514 19.7072 39.691 20.0533 40.31 20.6693C40.9291 21.2852 41.2768 22.1207 41.2768 22.9918C41.2768 23.8629 40.9291 24.6983 40.31 25.3143C39.691 25.9303 38.8514 26.2763 37.976 26.2763C37.1006 26.2763 36.261 25.9303 35.642 25.3143C35.0229 24.6983 34.6752 23.8629 34.6752 22.9918C34.6752 22.1207 35.0229 21.2852 35.642 20.6693C36.261 20.0533 37.1006 19.7072 37.976 19.7072ZM13.2033 9.85362C14.0787 9.85362 14.9183 10.1997 15.5373 10.8156C16.1564 11.4316 16.5041 12.2671 16.5041 13.1382C16.5041 14.0093 16.1564 14.8447 15.5373 15.4607C14.9183 16.0767 14.0787 16.4227 13.2033 16.4227C12.3279 16.4227 11.4883 16.0767 10.8693 15.4607C10.2502 14.8447 9.90248 14.0093 9.90248 13.1382C9.90248 12.2671 10.2502 11.4316 10.8693 10.8156C11.4883 10.1997 12.3279 9.85362 13.2033 9.85362ZM23.0893 9.85362C23.9647 9.85362 24.8043 10.1997 25.4233 10.8156C26.0423 11.4316 26.3901 12.2671 26.3901 13.1382C26.3901 14.0093 26.0423 14.8447 25.4233 15.4607C24.8043 16.0767 23.9647 16.4227 23.0893 16.4227C22.2138 16.4227 21.3743 16.0767 20.7552 15.4607C20.1362 14.8447 19.7884 14.0093 19.7884 13.1382C19.7884 12.2671 20.1362 11.4316 20.7552 10.8156C21.3743 10.1997 22.2138 9.85362 23.0893 9.85362ZM32.9917 9.85362C33.8672 9.85362 34.7068 10.1997 35.3258 10.8156C35.9448 11.4316 36.2926 12.2671 36.2926 13.1382C36.2926 14.0093 35.9448 14.8447 35.3258 15.4607C34.7068 16.0767 33.8672 16.4227 32.9917 16.4227C32.1163 16.4227 31.2767 16.0767 30.6577 15.4607C30.0387 14.8447 29.6909 14.0093 29.6909 13.1382C29.6909 12.2671 30.0387 11.4316 30.6577 10.8156C31.2767 10.1997 32.1163 9.85362 32.9917 9.85362ZM42.8942 9.85362C43.7697 9.85362 44.6092 10.1997 45.2283 10.8156C45.8473 11.4316 46.195 12.2671 46.195 13.1382C46.195 14.0093 45.8473 14.8447 45.2283 15.4607C44.6092 16.0767 43.7697 16.4227 42.8942 16.4227C42.0188 16.4227 41.1792 16.0767 40.5602 15.4607C39.9412 14.8447 39.5934 14.0093 39.5934 13.1382C39.5934 12.2671 39.9412 11.4316 40.5602 10.8156C41.1792 10.1997 42.0188 9.85362 42.8942 9.85362ZM52.7967 9.85362C53.6721 9.85362 54.5117 10.1997 55.1307 10.8156C55.7498 11.4316 56.0975 12.2671 56.0975 13.1382C56.0975 14.0093 55.7498 14.8447 55.1307 15.4607C54.5117 16.0767 53.6721 16.4227 52.7967 16.4227C51.9213 16.4227 51.0817 16.0767 50.4627 15.4607C49.8436 14.8447 49.4959 14.0093 49.4959 13.1382C49.4959 12.2671 49.8436 11.4316 50.4627 10.8156C51.0817 10.1997 51.9213 9.85362 52.7967 9.85362Z" fill="#EC7979"/>
</svg>
