<svg width="74" height="74" viewBox="0 0 74 74" fill="none" xmlns="http://www.w3.org/2000/svg">
<path d="M28.523 55.1362H45.4731H28.523ZM36.9999 4.35486V7.9821V4.35486ZM60.0837 13.9163L57.5192 16.4807L60.0837 13.9163ZM69.6451 37H66.0178H69.6451ZM7.98198 37H4.35474H7.98198ZM16.4806 16.4807L13.9161 13.9163L16.4806 16.4807ZM24.174 49.8259C21.6381 47.2894 19.9112 44.0578 19.2118 40.5398C18.5124 37.0219 18.8719 33.3756 20.2447 30.0619C21.6175 26.7482 23.9421 23.916 26.9245 21.9234C29.9068 19.9307 33.4131 18.8672 36.9999 18.8672C40.5867 18.8672 44.093 19.9307 47.0753 21.9234C50.0577 23.916 52.3823 26.7482 53.7551 30.0619C55.1279 33.3756 55.4874 37.0219 54.788 40.5398C54.0886 44.0578 52.3617 47.2894 49.8258 49.8259L47.8381 51.81C46.7017 52.9466 45.8003 54.2959 45.1854 55.7809C44.5705 57.2659 44.2542 58.8574 44.2544 60.4646V62.3907C44.2544 64.3147 43.4901 66.1599 42.1296 67.5204C40.7691 68.8809 38.9239 69.6452 36.9999 69.6452C35.0759 69.6452 33.2307 68.8809 31.8702 67.5204C30.5097 66.1599 29.7454 64.3147 29.7454 62.3907V60.4646C29.7454 57.2183 28.4541 54.1025 26.1617 51.81L24.174 49.8259Z" stroke="#EC7979" stroke-width="6.83333" stroke-linecap="round" stroke-linejoin="round"/>
</svg>
